<svg xmlns="http://www.w3.org/2000/svg" width="212" height="144"><g fill="none"><path fill="#E0E0E0" d="m66.862 7.059 1.63 5.74 18.754-5.74-3.261-6.56c-5.708-1.64-13.862.82-17.123 6.56Z"/><path fill="#F2F2F2" d="M106 4.599c-58.542 0-106 52.867-106 118.08V144h212v-21.32C212 57.466 164.542 4.6 106 4.6Z"/><g fill="#2F80ED"><path d="M81.086 7.879c-.67.18-1.338.366-2.002.56l-26.9 18.3 53.001-.82-.816-18.04H81.086ZM71.544 10.977c-9.853 3.771-19.052 9.115-27.352 15.762h5.547l21.805-15.762ZM6.032 83.32a127.21 127.21 0 0 0-2.77 10.179v25.9h8.153V83.32H6.032ZM0 124.32v9.84h212v-9.84H0ZM211.96 119.4c-.309-12.621-2.396-24.748-5.992-36.08h-26.583v36.08h32.575ZM168.819 27.559a104.616 104.616 0 0 0-16.17-10.94l14.505 10.94h1.665ZM135.905 9.363a96.477 96.477 0 0 0-4.991-1.484h-21.652l-.816 18.04 53 .82-25.541-17.376ZM123.706 6.239H88.294A96.073 96.073 0 0 1 106 4.599c6.033 0 11.948.561 17.706 1.64ZM163.077 83.32h-19.569v36.08h19.569V83.32ZM166.338 83.32h9.785v36.08h-9.785V83.32ZM30.985 83.32h17.938v36.08H30.985V83.32ZM26.092 83.32H14.677v36.08h11.415V83.32ZM129.646 40.68H81.539l-.001.015-6.375-.326-.148 2.92 6.367.326-.032.608-6.616-.337-1.157 22.93 6.551.335-.13 2.441L72.3 69.2l-.546 10.81 7.668.393-.33 6.197 61.154-2.46-10.6-43.46ZM125.569 119.4V91.52h-42.4v27.88h42.4ZM128.831 91.52h11.415v27.88h-11.415V91.52Z"/></g><ellipse cx="18.754" cy="16.4" fill="#333" rx="18.754" ry="16.4" transform="translate(92.954 42.32)"/><ellipse cx="12.231" cy="9.84" fill="#4F4F4F" rx="12.231" ry="9.84" transform="translate(99.477 48.88)"/><ellipse cx="3.262" cy="3.28" fill="#828282" rx="3.262" ry="3.28" transform="translate(101.108 48.88)"/><ellipse cx="9.785" cy="9.84" fill="#EB5757" rx="9.785" ry="9.84" transform="translate(91.323 96.44)"/><ellipse cx="14.677" cy="14.76" fill="#BDBDBD" rx="14.677" ry="14.76" transform="translate(50.554 86.6)"/><ellipse cx="8.969" cy="9.02" fill="#E0E0E0" rx="8.969" ry="9.02" transform="translate(52.185 91.52)"/><ellipse cx="7.338" cy="7.38" fill="#333" rx="7.338" ry="7.38" transform="translate(53.815 93.16)"/><ellipse cx="4.077" cy="4.1" fill="#4F4F4F" rx="4.077" ry="4.1" transform="translate(57.077 96.44)"/><ellipse cx="1.631" cy="1.64" fill="#828282" rx="1.631" ry="1.64" transform="translate(57.077 96.44)"/><path stroke="#E0E0E0" d="M145.638 87.1h15.308v10.48h-15.308zM145.638 103.5h15.308v10.48h-15.308z"/></g></svg>